<?xml version="1.0" encoding="utf-8"?>
<!-- Generator: Adobe Illustrator 17.0.0, SVG Export Plug-In . SVG Version: 6.00 Build 0)  -->
<!DOCTYPE svg PUBLIC "-//W3C//DTD SVG 1.1//EN" "http://www.w3.org/Graphics/SVG/1.1/DTD/svg11.dtd">
<svg version="1.1" id="Layer_1" xmlns="http://www.w3.org/2000/svg" xmlns:xlink="http://www.w3.org/1999/xlink" x="0px" y="0px"
	 width="975.104px" height="366.144px" viewBox="0 0 975.104 366.144" enable-background="new 0 0 975.104 366.144"
	 xml:space="preserve">
<g>
	<path d="M975.104,366.144H0V0h975.104V366.144z M19.671,346.473h935.762V19.671H19.671V346.473z"/>
</g>
<g>
	<path fill-rule="evenodd" clip-rule="evenodd" d="M158.627,208.776c2.113,0.037,5.379,0.037,9.653,0.037
		c34.751,0,59.513-5.781,73.652-17.289c14.321-11.429,21.486-31.33,21.486-59.34c0-23.446-4.87-39.669-14.792-48.428
		c-9.759-8.942-27.864-13.321-53.942-13.321c-5.744,0-15.906,0.297-30.813,0.73c-15.109,0.5-27.192,0.614-36.72,0.614
		c-13.697,0-27.653-0.413-41.888-1.076c-2.488-0.25-3.967-0.268-4.418-0.268c-2.853,0-4.659,0.421-5.312,1.306
		c-0.845,0.903-1.268,2.563-1.268,5.667c0,4.379,2.228,6.781,6.579,6.981l9.144,0.799c4.716,0.47,7.79,1.997,9.567,4.841
		c1.556,2.823,2.449,10.142,2.449,22.158v152.144v2.843c0,10.45-0.893,16.674-2.449,19.421c-1.777,2.747-4.851,4.438-9.567,4.726
		l-9.144,0.788c-0.327,0-0.547,0.038-0.98,0.096c-3.765,0.269-5.6,2.843-5.6,6.916c0,2.882,0.423,4.745,1.268,5.648
		c0.653,0.884,2.459,1.114,5.312,1.114c0.528,0,1.979-0.019,4.418-0.077c14.235-0.826,28.191-1.076,41.888-1.076
		c15.589,0,30.611,0.25,45.374,1.076c2.459,0.058,3.861,0.077,4.361,0.077c2.622,0,4.466-0.231,5.283-1.114
		c0.682-0.903,1.114-2.766,1.114-5.648c0-4.226-2.094-6.8-6.397-7.012l-12.544-0.788c-4.697-0.211-7.972-1.902-9.538-4.726
		c-1.748-2.824-2.478-9.97-2.478-22.264v-55.632C154.315,208.699,156.332,208.717,158.627,208.776z M152.326,103.417
		c0-6.157,0.067-10.382,0.115-12.534c0.067-2.286,0.403-4.121,0.615-5.292c3.247-0.336,5.657-0.443,7.454-0.5
		c1.575-0.26,3.045-0.289,4.457-0.289c16.271,0,27.903,3.824,35.049,11.498c7.146,7.693,10.623,20.257,10.623,37.816
		c0,20.314-4.015,35.201-12.16,44.673c-8.193,9.373-21.102,14.177-38.747,14.177c-1.969,0-3.467,0-4.495-0.27
		c-1.201-0.02-2.161-0.077-2.91-0.23V103.417z"/>
</g>
<g>
	<path fill-rule="evenodd" clip-rule="evenodd" d="M405.553,212.464l-8.769-0.807c-3.256-0.136-5.175-0.443-5.752-1.306
		c-0.732-0.769-0.923-2.709-0.923-6.224c0-3.151,0.433-5.111,1.123-5.937c0.923-0.787,2.748-1.113,5.667-1.113
		c0.48,0,1.873,0.037,4.225,0.094c15.975,0.808,32.764,1.153,50.15,1.153c14.224,0,28.132-0.344,41.772-1.153
		c2.266-0.057,3.649-0.094,4.092-0.094c2.978,0,4.861,0.327,5.551,1.113c0.826,0.826,1.249,2.785,1.249,5.937
		c0,4.589-1.883,7.184-5.591,7.414c-0.441,0.077-0.673,0.116-0.94,0.116l-5.994,0.807c-5.225,0.307-8.663,2.728-10.565,6.684
		c-1.883,3.938-2.805,12.314-2.805,24.801c0,0.191,0,1.076,0,2.266c0.173,4.784,0.403,9.374,0.403,13.409
		c0,8.606,0.46,17.212,1.192,25.895c0.327,1.806,0.384,2.843,0.384,3.035c0,2.478-0.519,3.919-1.536,5.417
		c-1.009,1.114-2.758,1.959-4.871,2.19l-7.953,0.98c-1.843,0.115-12.198,2.689-31.678,7.28c-19.258,4.188-37.084,6.32-53.433,6.32
		c-39.457,0-68.531-9.663-86.819-28.988c-18.259-19.287-27.394-49.908-27.394-91.479c0-43.991,9.653-75.726,29.228-95.32
		c19.575-19.429,50.935-29.371,94.543-29.371c13.668,0,27.067,0.826,40.062,2.323c12.938,1.471,25.212,3.757,36.374,6.35
		c2.018,0.45,3.458,1.277,4.284,2.239c0.606,1.027,1.037,2.9,1.037,5.714v47.699c0,1.825-0.45,2.959-1.123,3.785
		c-0.923,0.643-2.612,1.037-4.707,1.037h-9.537c-4.871,0-8.089-4.235-9.279-12.631c-0.45-2.372-0.864-4.168-0.98-5.262
		c-2.382-13.227-7.876-22.543-16.233-28.24c-8.463-5.764-20.997-8.636-37.826-8.636c-25.596,0-44.192,8.223-55.334,24.821
		c-11.113,16.423-16.78,43.751-16.78,81.844c0,39.285,5.293,67.255,15.848,84.313c10.585,16.694,27.941,25.223,52.233,25.223
		c14.887,0,25.529-2.132,31.907-6.704c6.533-4.207,9.645-11.776,9.645-22.284v-27.759c0-10.528-1.422-17.405-4.064-20.92
		C422.834,215.307,416.128,213.231,405.553,212.464L405.553,212.464z"/>
</g>
<g>
	<path fill-rule="evenodd" clip-rule="evenodd" d="M516.463,236.783c-1.383,0-2.4-0.153-2.919-0.443
		c-0.539-0.633-0.846-1.46-0.846-2.536v-30.659c0-1.324,0.289-2.38,0.576-2.996c0.519-0.423,1.249-0.826,2.382-0.826h75.976
		c1.286,0,2.229,0.327,2.575,0.633c0.557,0.309,0.826,1.153,0.883,2.671v30.947c0,1.153-0.212,2.075-0.616,2.728
		c-0.537,0.327-1.306,0.48-2.536,0.48H516.463L516.463,236.783z"/>
</g>
<g>
	<path fill-rule="evenodd" clip-rule="evenodd" d="M646.765,119.363l-28.238,19.526c-6.82,4.583-12.544,8.28-17.002,10.797
		c-4.495,2.689-7.088,3.822-8.337,3.822c-1.249-0.057-2.229-0.537-2.882-1.18c-0.594-0.885-0.94-2.152-0.94-3.651v-15.349
		c0-2.813,4.398-5.685,13.024-8.596c8.626-2.959,16.693-6.407,24.186-10.613c6.761-3.765,14.197-8.346,21.977-14.476
		c7.76-6.098,13.235-9.057,16.213-9.057h24.146c1.902,0,3.075,0.364,3.728,0.913c0.384,0.49,0.864,2.363,0.864,5.292v161.951
		c0,14.446,1.153,23.609,3.842,26.721c2.365,3.131,7.646,5.091,15.292,5.859l8.626,0.788c0.46,0.077,1.306,0.096,2.209,0.096
		c3.842,0.211,5.762,2.766,5.838,6.916c0,2.824-0.307,4.707-1.229,5.609c-0.903,0.903-2.842,1.153-5.801,1.153
		c-0.69,0-2.325-0.019-4.629-0.077c-16.022-0.826-32.255-1.076-48.641-1.076c-18.249,0-36.114,0.25-54.076,1.076
		c-2.766,0.058-4.515,0.077-4.898,0.077c-3.094,0-5.38-0.307-6.513-1.249c-1.133-1.018-1.729-2.824-1.729-5.513
		c0-4.149,2.479-6.704,7.377-6.916c1.096,0,2.229-0.019,3.132-0.096l9.336-0.788c9.796-0.903,16.579-3.17,20.131-7.031
		c3.285-4.303,4.995-11.507,4.995-22.706V119.363L646.765,119.363z"/>
</g>
<g>
	<path fill-rule="evenodd" clip-rule="evenodd" d="M832.22,188.778c14.907,3.899,25.645,10.258,32.562,18.998
		c7.298,8.663,10.603,20.094,10.603,33.809c0,22.573-6.627,39.228-19.459,50.677c-13.256,11.526-32.448,17.27-57.67,17.27
		c-22.994,0-40.379-4.073-52.483-12.544c-11.795-8.529-17.692-20.92-17.692-37.171c0-6.243,1.442-11.008,4.88-13.908
		c3.169-2.921,8.549-4.515,15.56-4.515c7.896,0,13.427,0.98,16.233,2.996c2.842,1.999,4.111,6.301,4.168,12.161
		c0.787,15.791,3.324,26.222,7.184,30.986c3.938,4.822,10.662,7.396,20.171,7.396c9.662,0,16.579-3.65,21.131-10.642
		c4.17-7.3,6.647-18.788,6.647-34.347c0-19.404-2.803-32.869-8.374-40.401c-5.571-7.53-15.216-11.218-28.93-11.218
		c-2.785,0-5.63,0.059-8.492,0.443c-2.978,0.193-4.802,0.27-5.514,0.27c-1.19,0-2.15-0.289-2.9-1.056
		c-0.386-0.808-0.923-1.942-0.923-3.767v-7.587c0.423-1.595,0.633-2.669,1.403-3.228c0.384-0.71,1.383-1.017,3.035-1.017
		c0.096,0,0.364,0,1.153,0c3.515,0.25,6.608,0.307,9.586,0.307c14.157,0,23.879-3.149,29.526-9.413
		c5.244-6.224,8.107-17.366,8.107-33.339c0-13.833-2.018-23.889-5.994-30.103c-4.072-6.224-10.662-9.259-19.498-9.259
		c-8.356,0-14.293,2.286-18.019,6.694c-3.785,4.391-6.57,13.41-8.356,26.847c-0.405,5.858-2.075,9.749-4.304,11.582
		c-2.575,1.883-7.357,2.795-14.407,2.795c-6.647,0-11.392-1.326-14.273-3.832c-2.902-2.662-4.515-6.667-4.515-12.275
		c0-14.553,5.764-25.628,17.232-33.331c11.506-7.674,27.97-11.506,49.831-11.506c23.763,0,41.339,4.341,53.48,13.024
		c11.777,8.653,17.615,21.583,17.615,38.795c0,12.668-2.976,23.09-8.933,30.927C855.31,178.213,845.628,184.378,832.22,188.778
		L832.22,188.778z"/>
</g>
</svg>
