<?xml version="1.0" encoding="utf-8"?>
<!-- Generator: Adobe Illustrator 17.0.0, SVG Export Plug-In . SVG Version: 6.00 Build 0)  -->
<!DOCTYPE svg PUBLIC "-//W3C//DTD SVG 1.1//EN" "http://www.w3.org/Graphics/SVG/1.1/DTD/svg11.dtd">
<svg version="1.1" id="Layer_1" xmlns="http://www.w3.org/2000/svg" xmlns:xlink="http://www.w3.org/1999/xlink" x="0px" y="0px"
	 width="389px" height="322.8px" viewBox="0 0 389 322.8" enable-background="new 0 0 389 322.8" xml:space="preserve">
<path fill-rule="evenodd" clip-rule="evenodd" fill="#EB9022" d="M178.7,0c63.4,0,114.9,51.4,114.9,114.9
	c0,63.4-51.4,114.9-114.9,114.9c-63.4,0-114.9-51.4-114.9-114.9C63.8,51.4,115.2,0,178.7,0z"/>
<path fill-rule="evenodd" clip-rule="evenodd" fill="#F2D30F" d="M178.6,108.1l160.5,121.6H13.3L178.6,108.1z"/>
<path fill="#464240" d="M37.1,322.8c25.2,0,36.9-13.8,36.9-33.3V243H53.6v46c0,9.3-5.6,16-16.5,16c-10.9,0-16.6-6.7-16.6-16v-46H0
	v46.7C0,308.9,12,322.8,37.1,322.8z"/>
<path fill="#464240" d="M121.2,321.4c24.6,0,42.3-14.9,42.3-39.3c0-24.3-17.8-39.1-42.4-39.1H88.2v78.4H121.2z M121.1,303.8h-12.7
	v-43.1h12.8c14.3,0,21.6,9.4,21.6,21.5C142.8,293.8,134.8,303.8,121.1,303.8z"/>
<path fill="#464240" d="M246,321.4L216.5,243H191l-29.5,78.4h22.9l3.9-11.3h30.9l3.9,11.3H246z M213.7,292.5h-19.9l10-29.5
	L213.7,292.5z"/>
<path fill="#464240" d="M285.4,321.4v-31.6L315,243h-22.9l-16.8,28.9l-17-28.9h-22.8l29.7,46.8v31.6H285.4z"/>
<path fill="#464240" d="M389,321.4L359.4,243h-25.5l-29.5,78.4h22.9l3.9-11.3h30.9l3.9,11.3H389z M356.6,292.5h-19.9l10-29.5
	L356.6,292.5z"/>
</svg>
