<?xml version="1.0" encoding="utf-8"?>
<!-- Generator: Adobe Illustrator 17.0.0, SVG Export Plug-In . SVG Version: 6.00 Build 0)  -->
<!DOCTYPE svg PUBLIC "-//W3C//DTD SVG 1.1//EN" "http://www.w3.org/Graphics/SVG/1.1/DTD/svg11.dtd">
<svg version="1.1" id="Layer_1" xmlns="http://www.w3.org/2000/svg" xmlns:xlink="http://www.w3.org/1999/xlink" x="0px" y="0px"
	 width="318.988px" height="338.294px" viewBox="0 0 318.988 338.294" enable-background="new 0 0 318.988 338.294"
	 xml:space="preserve">
<path fill="#D4D4D4" d="M307.219,239.121l-11.396,4.876l-5.003,12.919l-37.848-42.826l-10.667-90.625
	c-0.578-3.148-2.3-5.755-4.641-7.561c-1.764-1.764-7.597-2.89-9.909-3.203L180.6,100.353V89.788
	c6.02-5.442,9.897-14.592,12.317-25.127c10.445,0,8.849-20.805,8.849-20.805c-0.566-23.243-9.036-37.131-26.055-41.935
	C171.197,0.638,159.897,0,159.897,0s-13.407,0.957-18.59,2.86c-14.99,5.538-22.075,19.12-22.617,40.996
	c0,0-0.361,20.444,10.505,20.444c2.408,10.679,9.265,19.992,15.285,25.489v10.559l-56.118,12.353
	c-2.257,0.313-4.647,1.397-6.393,3.118c-2.378,1.806-4.298,4.461-4.882,7.645L66.34,214.077l-37.884,42.826l-5.129-12.636
	l-10.848-4.599l-0.452-0.56C5.243,239.59,0,270.78,0,270.78s5.845,11.57,12.263,11.57c0.277,0,0.56,0,0.843-0.018l1.752-0.126
	c-1.77,3.817-2.835,8.278-2.835,13.087c0,12.221,6.592,22.322,15.243,24.369c6.231,2.95,135.179,5.057,135.354,5.105
	c0,0,25.555,13.527,26.711,13.527c4.834,0,9.187-13.214,11.161-13.214h-0.223l82.673-5.773v-0.096
	c12.04-2.811,19.035-12.401,19.035-23.917c0-4.81,1.553-9.271-0.211-13.087l3.052,0.126c0.289,0.018,1.385,0.018,1.668,0.018
	c6.417,0,12.504-11.57,12.504-11.57S313.991,239.59,307.219,239.121z M120.4,245.147l-64.3,14.532l33.863-21.052l14.725-59.664
	l9.692,37.806L120.4,245.147z M204.674,245.147l6.026-24.826l7.254-41.357l12.78,55.817l35.759,25.097L204.674,245.147z"/>
<path fill="#7F7F7F" d="M284.463,244.358"/>
</svg>
